<svg xmlns="http://www.w3.org/2000/svg" width="24" height="24" viewBox="0 0 24 24" fill="none">
  <path fill-rule="evenodd" clip-rule="evenodd"
    d="M8.95322 1.36962C7.52507 2.11357 6.35665 2.74311 6.3569 2.76871C6.35753 2.8348 9.78449 4.57034 9.90613 4.56611C9.96145 4.56426 10.3628 4.37949 10.798 4.15557L11.5894 3.74852L12.4538 4.19279L13.318 4.63714L14.7334 4.00114C16.8661 3.04279 17.0876 2.93777 17.0529 2.90249C17.0068 2.85567 16.2419 2.44472 14.1665 1.35209C13.1635 0.824015 12.19 0.30625 12.0031 0.20148C11.8162 0.0967102 11.6378 0.01243 11.6066 0.0140614C11.5755 0.0156928 10.3814 0.625702 8.95322 1.36962ZM2.68938 4.61325L1.20269 5.38118V8.75145C1.20269 10.6051 1.22222 12.1217 1.24616 12.1217C1.27002 12.1217 2.00148 11.8046 2.87157 11.4171L4.45357 10.7125V7.15999L5.22663 7.58117C5.82235 7.90543 6.41842 8.22903 7.01485 8.55197L8.02998 9.10159L8.48168 8.89734C8.76498 8.76903 9.0477 8.63947 9.32985 8.50867C9.54788 8.40714 10.0831 8.16608 10.5192 7.97288C10.9553 7.7796 11.3589 7.58524 11.4162 7.54094C11.4922 7.4821 10.565 6.96973 7.98676 5.64574C6.04331 4.64773 4.39086 3.83435 4.31465 3.83825C4.23844 3.84215 3.50707 4.19086 2.68938 4.61325ZM17.3209 4.8289C16.3083 5.286 15.4792 5.67826 15.4782 5.70063C15.4774 5.72297 16.0292 6.05111 16.7047 6.4297C17.3801 6.80838 17.9327 7.13845 17.9327 7.16331C17.9327 7.18812 17.335 7.4777 16.6046 7.80697C15.8741 8.13616 14.0277 8.97 12.5014 9.65998L7.38726 11.9717C6.10079 12.5532 4.94119 13.0774 4.81038 13.1366C2.1827 14.3262 1.46046 14.6562 1.36127 14.7129C1.26154 14.7699 1.23894 15.1013 1.22119 16.7646L1.20001 18.7484L2.52947 19.4258L3.85891 20.1032L5.70237 19.2712C6.71631 18.8137 7.54584 18.4153 7.54584 18.386C7.54584 18.3567 7.35847 18.2347 7.12958 18.1146C6.90057 17.9945 6.42785 17.7288 6.07898 17.5239C5.73013 17.3189 5.38228 17.1309 5.30591 17.106C5.22957 17.0811 5.16821 17.0377 5.16945 17.0093C5.17072 16.981 5.9825 16.5954 6.97329 16.1524C8.89772 15.2919 10.3704 14.6288 13.5322 13.199C14.946 12.5598 16.36 11.9209 17.7741 11.2825C19.017 10.7215 20.462 10.0663 20.9854 9.82652L21.9368 9.39055L21.958 7.38416L21.9792 5.37786L20.6308 4.68575C19.8892 4.30514 19.2553 3.99465 19.222 3.99578C19.1888 3.99683 18.3333 4.37169 17.3209 4.8289ZM21.5756 12.0672C21.3769 12.1642 20.9844 12.3459 20.7034 12.471C20.4224 12.596 19.8892 12.8366 19.5185 13.0057L18.8445 13.3131L18.8292 15.0745C18.8207 16.0433 18.785 16.8316 18.7499 16.8265C18.6701 16.8146 17.407 16.1668 16.1372 15.4864C15.2208 14.9954 15.1632 14.9759 14.9479 15.0826C14.8234 15.1442 14.0793 15.478 13.2943 15.8243C12.5093 16.1706 11.8415 16.4765 11.8101 16.5042C11.7788 16.5319 13.3586 17.3881 15.3209 18.4071L18.8887 20.2598L20.4128 19.4714C21.251 19.0378 21.9637 18.6424 21.9965 18.5926C22.0704 18.4808 22.0641 11.8753 21.9901 11.8843C21.9609 11.8878 21.7743 11.9701 21.5756 12.0672ZM13.1357 19.8203C12.8714 19.9339 12.6071 20.0477 12.3428 20.1617C11.5449 20.5069 11.7013 20.5184 10.7521 20.0458C10.1198 19.7311 9.84728 19.634 9.72899 19.6811C9.64026 19.7165 8.87662 20.06 8.03188 20.4446C7.1872 20.8291 6.46678 21.1437 6.43095 21.1437C6.07654 21.1437 6.66573 21.4957 8.93928 22.6426L11.6056 23.9875L12.7275 23.4336C13.3445 23.129 14.589 22.519 15.4931 22.078C16.3972 21.637 17.1257 21.2647 17.1121 21.2507C17.0983 21.2367 16.3408 20.8477 15.4286 20.3863L13.77 19.5474L13.1357 19.8203Z"
    fill="#9ca3af" />
</svg>