<svg width="39" height="65" viewBox="0 0 39 65" fill="none" xmlns="http://www.w3.org/2000/svg">
<path d="M17.1563 46.7096C17.1563 46.7096 17.1283 46.7096 17.1123 46.7096C16.5721 46.6852 16.1479 46.2331 16.1559 45.6833C16.1599 45.1783 16.1759 44.6488 16.2039 44.1031C16.1679 41.1707 15.4436 35.6767 11.0978 31.2334C7.46834 27.5232 3.13056 26.4521 0.86963 26.1466C0.409441 26.0855 0.0532952 25.7068 0.00527546 25.2343C-0.0427442 24.7619 0.241372 24.3221 0.681553 24.1714C3.12656 23.3283 7.77246 21.2024 11.3859 16.4292C15.1275 11.485 15.9398 6.12124 16.0399 2.89975C15.9998 2.08929 16.0078 1.42951 16.0238 0.981516C16.0439 0.435777 16.48 0.00407268 17.0163 0H17.0243C17.5565 0 17.9967 0.423559 18.0247 0.965226C18.0487 1.47024 18.0647 2.12187 18.0447 2.88753C18.2127 6.10088 19.1811 11.8271 23.631 16.0301C25.3197 17.6266 27.3325 18.8443 29.6054 19.6507C29.9576 19.7769 30.2097 20.0865 30.2657 20.4612C30.3217 20.8358 30.1656 21.2105 29.8655 21.4345C27.7246 23.031 25.8359 24.9004 24.2432 26.9937C19.7774 32.8584 18.4528 39.3299 18.2047 44.1642C18.2127 44.8362 18.1847 45.386 18.1567 45.7688C18.1167 46.3023 17.6805 46.7096 17.1603 46.7096H17.1563ZM4.32705 24.8393C6.79606 25.6009 9.8213 27.0508 12.5104 29.7957C14.9114 32.2475 16.32 34.9843 17.1363 37.5175C18.0447 33.7299 19.7094 29.6206 22.6586 25.7475C24.0071 23.9718 25.5598 22.3509 27.2805 20.901C25.4157 20.0417 23.731 18.9095 22.2624 17.5247C19.5573 14.9671 18.0047 11.9248 17.1243 9.11059C16.4 11.8148 15.1315 14.8083 12.9626 17.6754C10.2695 21.2309 7.10019 23.4586 4.32305 24.8434L4.32705 24.8393Z" fill="#121212"/>
<path d="M9.20498 65.0042C9.20498 65.0042 9.17697 65.0042 9.16096 65.0042C8.62074 64.9798 8.19657 64.5277 8.20457 63.9779C8.20457 63.7824 8.21257 63.5747 8.22058 63.3629C8.20457 62.3122 7.94846 60.1699 6.30379 58.492C4.93923 57.0991 3.30656 56.6959 2.45421 56.5819C1.99402 56.5208 1.63788 56.142 1.58986 55.6696C1.54184 55.1972 1.82595 54.7573 2.26613 54.6066C3.20652 54.2849 4.98725 53.4704 6.37182 51.6377C7.7964 49.752 8.11253 47.7034 8.15655 46.4653C8.14054 46.1232 8.14454 45.8463 8.15255 45.6549C8.17256 45.1091 8.60874 44.6774 9.14496 44.6734H9.15296C9.68518 44.6734 10.1254 45.0969 10.1534 45.6386C10.1654 45.8544 10.1694 46.1273 10.1614 46.4531C10.2294 47.679 10.5976 49.8294 12.2622 51.4014C12.8945 52.0001 13.6468 52.4563 14.5032 52.7576C14.8553 52.8839 15.1074 53.1934 15.1634 53.5681C15.2194 53.9428 15.0634 54.3175 14.7673 54.5415C13.9349 55.1605 13.1986 55.8895 12.5824 56.7C10.8497 58.9766 10.3334 61.4935 10.2334 63.3833C10.2334 63.6684 10.2254 63.9046 10.2134 64.0675C10.1734 64.601 9.7372 65.0083 9.21699 65.0083L9.20498 65.0042ZM5.32739 55.3438C6.11571 55.7226 6.94805 56.2642 7.72037 57.0543C8.30461 57.6489 8.75279 58.2802 9.09694 58.9155C9.51711 57.767 10.1254 56.586 10.9897 55.4538C11.3899 54.9284 11.8341 54.4315 12.3143 53.9672C11.802 53.6618 11.3259 53.3034 10.8937 52.892C10.1694 52.2078 9.63316 51.4462 9.23699 50.6765C8.92486 51.4055 8.50869 52.1508 7.95647 52.8798C7.14013 53.9591 6.21975 54.7573 5.32739 55.3438Z" fill="#121212"/>
<path d="M33.0348 54.9039C33.0348 54.9039 33.0067 54.9039 32.9907 54.9039C32.4505 54.8795 32.0263 54.4274 32.0303 53.8776C32.0303 53.6658 32.0383 53.4459 32.0504 53.2179C32.0343 52.106 31.7582 50.0493 30.1296 48.3877C28.765 46.9948 27.1323 46.5916 26.28 46.4776C25.8198 46.4165 25.4636 46.0377 25.4156 45.5653C25.3676 45.0929 25.6517 44.653 26.0919 44.5023C27.0323 44.1806 28.813 43.366 30.1976 41.5333C31.6262 39.6477 31.9383 37.5991 31.9823 36.361C31.9663 36.0189 31.9703 35.742 31.9783 35.5506C31.9983 35.0048 32.4345 34.5731 32.9707 34.569C33.507 34.569 33.9511 34.9885 33.9751 35.5343C33.9871 35.7501 33.9911 36.023 33.9831 36.3488C34.0512 37.5747 34.4193 39.7251 36.084 41.2971C36.7163 41.8958 37.4686 42.3519 38.3249 42.6533C38.6771 42.7796 38.9292 43.0891 38.9852 43.4638C39.0412 43.8385 38.8852 44.2132 38.589 44.4372C37.7567 45.0562 37.0244 45.7852 36.4041 46.5957C34.6714 48.8723 34.1512 51.3933 34.0552 53.283C34.0552 53.5681 34.0472 53.8003 34.0352 53.9632C33.9951 54.4967 33.559 54.9039 33.0388 54.9039H33.0348ZM29.1572 45.2435C29.9455 45.6223 30.7778 46.164 31.5501 46.9541C32.1344 47.5487 32.5826 48.1799 32.9267 48.8153C33.3469 47.6668 33.9551 46.4857 34.8195 45.3535C35.2197 44.8281 35.6638 44.3313 36.144 43.867C35.6318 43.5615 35.1596 43.2031 34.7234 42.7918C33.9991 42.1076 33.4629 41.346 33.0668 40.5763C32.7546 41.3053 32.3385 42.0506 31.7862 42.7796C30.9699 43.8588 30.0495 44.6571 29.1572 45.2435Z" fill="#121212"/>
</svg>
